<?xml version="1.0" encoding="UTF-8" standalone="no"?>
<!DOCTYPE svg PUBLIC "-//W3C//DTD SVG 1.1//EN" "http://www.w3.org/Graphics/SVG/1.1/DTD/svg11.dtd">
<svg width="100%" height="100%" viewBox="0 0 20 18" version="1.1" xmlns="http://www.w3.org/2000/svg" xmlns:xlink="http://www.w3.org/1999/xlink" xml:space="preserve" xmlns:serif="http://www.serif.com/" style="fill-rule:evenodd;clip-rule:evenodd;stroke-linejoin:round;stroke-miterlimit:2;">
    <g transform="matrix(1,0,0,1,-2.25,-2.99993)">
        <path d="M11.645,20.91L11.638,20.907L11.616,20.895C11.487,20.824 11.36,20.752 11.233,20.677C9.711,19.772 8.288,18.71 6.989,17.507C4.688,15.36 2.25,12.174 2.25,8.25C2.25,5.322 4.714,3 7.688,3C9.362,2.992 10.951,3.748 12,5.052C13.049,3.748 14.639,2.991 16.313,3C19.286,3 21.75,5.322 21.75,8.25C21.75,12.175 19.312,15.361 17.011,17.506C15.712,18.709 14.289,19.772 12.767,20.676C12.64,20.751 12.513,20.824 12.384,20.895L12.362,20.907L12.355,20.911L12.352,20.912C12.132,21.029 11.868,21.029 11.648,20.912L11.645,20.911L11.645,20.91Z" style="fill-rule:nonzero;"/>
    </g>
</svg>
