<?xml version="1.0" encoding="UTF-8" standalone="no"?>
<!DOCTYPE svg PUBLIC "-//W3C//DTD SVG 1.1//EN" "http://www.w3.org/Graphics/SVG/1.1/DTD/svg11.dtd">
<svg width="100%" height="100%" viewBox="0 0 20 19" version="1.1" xmlns="http://www.w3.org/2000/svg" xmlns:xlink="http://www.w3.org/1999/xlink" xml:space="preserve" xmlns:serif="http://www.serif.com/" style="fill-rule:evenodd;clip-rule:evenodd;stroke-linejoin:round;stroke-miterlimit:2;">
    <g transform="matrix(1,0,0,1,-2.09228,-2.40225)">
        <path d="M10.788,3.21C11.236,2.133 12.764,2.133 13.212,3.21L15.294,8.216L20.698,8.65C21.862,8.743 22.334,10.195 21.447,10.955L17.33,14.482L18.587,19.755C18.858,20.891 17.623,21.788 16.627,21.18L12,18.354L7.373,21.18C6.377,21.788 5.142,20.89 5.413,19.755L6.67,14.482L2.553,10.955C1.666,10.195 2.138,8.743 3.302,8.65L8.706,8.216L10.788,3.211L10.788,3.21Z" style="fill:rgb(100,0,0);"/>
    </g>
</svg>
