<?xml version="1.0" encoding="UTF-8" standalone="no"?>
<!DOCTYPE svg PUBLIC "-//W3C//DTD SVG 1.1//EN" "http://www.w3.org/Graphics/SVG/1.1/DTD/svg11.dtd">
<svg width="100%" height="100%" viewBox="0 0 21 20" version="1.1" xmlns="http://www.w3.org/2000/svg" xmlns:xlink="http://www.w3.org/1999/xlink" xml:space="preserve" xmlns:serif="http://www.serif.com/" style="fill-rule:evenodd;clip-rule:evenodd;stroke-linejoin:round;stroke-miterlimit:2;">
    <g transform="matrix(1,0,0,1,-1.5,-2.25)">
        <path d="M2.25,2.25C1.839,2.25 1.5,2.589 1.5,3C1.5,3.411 1.839,3.75 2.25,3.75L3.636,3.75C3.806,3.75 3.954,3.864 3.998,4.028L6.556,13.62C4.909,14.049 3.75,15.548 3.75,17.25C3.75,17.664 4.086,18 4.5,18L20.25,18C20.661,18 21,17.661 21,17.25C21,16.839 20.661,16.5 20.25,16.5L5.378,16.5C5.695,15.603 6.549,15 7.5,15L18.718,15C19.004,15 19.266,14.836 19.392,14.579C20.534,12.236 21.522,9.822 22.352,7.351C22.378,7.274 22.391,7.194 22.391,7.113C22.391,6.771 22.158,6.471 21.827,6.386C16.553,5.041 11.122,4.41 5.68,4.509L5.448,3.642C5.23,2.824 4.483,2.25 3.636,2.25L2.25,2.25ZM3.75,20.25C3.75,19.427 4.427,18.75 5.25,18.75C6.073,18.75 6.75,19.427 6.75,20.25C6.75,21.073 6.073,21.75 5.25,21.75C4.427,21.75 3.75,21.073 3.75,20.25ZM16.5,20.25C16.5,19.427 17.177,18.75 18,18.75C18.823,18.75 19.5,19.427 19.5,20.25C19.5,21.073 18.823,21.75 18,21.75C17.177,21.75 16.5,21.073 16.5,20.25Z" style="fill-rule:nonzero;"/>
    </g>
</svg>
